<svg xmlns="http://www.w3.org/2000/svg" xmlns:xlink="http://www.w3.org/1999/xlink" width="207" zoomAndPan="magnify" viewBox="0 0 155.25 36.750001" height="49" preserveAspectRatio="xMidYMid meet" version="1.0"><defs><g/></defs><g fill="#a81010" fill-opacity="1"><g transform="translate(39.660498, 17.229451)"><g><path d="M 6.171875 -7.71875 L 2.671875 -7.71875 L 2.671875 -4.40625 L 2.5625 -4.40625 L 0.703125 -6.328125 C 0.378906 -6.671875 0.160156 -7.066406 0.046875 -7.515625 C -0.0546875 -7.972656 -0.046875 -8.410156 0.078125 -8.828125 C 0.203125 -9.253906 0.445312 -9.609375 0.8125 -9.890625 C 1.1875 -10.171875 1.679688 -10.3125 2.296875 -10.3125 L 6.171875 -10.3125 C 6.503906 -10.3125 6.773438 -10.222656 6.984375 -10.046875 C 7.191406 -9.867188 7.328125 -9.648438 7.390625 -9.390625 C 7.460938 -9.140625 7.460938 -8.882812 7.390625 -8.625 C 7.328125 -8.375 7.191406 -8.160156 6.984375 -7.984375 C 6.785156 -7.804688 6.515625 -7.71875 6.171875 -7.71875 Z M 1.28125 -2.578125 C 0.9375 -2.578125 0.660156 -2.488281 0.453125 -2.3125 C 0.242188 -2.144531 0.109375 -1.929688 0.046875 -1.671875 C -0.015625 -1.421875 -0.015625 -1.164062 0.046875 -0.90625 C 0.109375 -0.65625 0.242188 -0.441406 0.453125 -0.265625 C 0.660156 -0.0976562 0.9375 -0.015625 1.28125 -0.015625 C 1.78125 -0.00390625 2.234375 0 2.640625 0 C 3.046875 0 3.457031 0 3.875 0 C 4.300781 -0.0078125 4.757812 -0.015625 5.25 -0.015625 C 5.6875 -0.015625 6.070312 -0.117188 6.40625 -0.328125 C 6.738281 -0.535156 7.003906 -0.8125 7.203125 -1.15625 C 7.398438 -1.5 7.515625 -1.867188 7.546875 -2.265625 C 7.585938 -2.660156 7.535156 -3.046875 7.390625 -3.421875 C 7.242188 -3.804688 7 -4.144531 6.65625 -4.4375 L 5 -5.796875 L 4.890625 -5.796875 L 4.890625 -2.578125 Z M 1.28125 -2.578125 "/></g></g></g><g fill="#a81010" fill-opacity="1"><g transform="translate(47.655654, 17.229451)"><g><path d="M 0 -9.171875 C 0 -9.523438 0.125 -9.828125 0.375 -10.078125 C 0.632812 -10.335938 0.9375 -10.46875 1.28125 -10.46875 C 1.632812 -10.46875 1.9375 -10.335938 2.1875 -10.078125 C 2.445312 -9.828125 2.578125 -9.523438 2.578125 -9.171875 L 2.578125 -7.765625 L 2.828125 -7.765625 C 3.191406 -7.765625 3.476562 -7.675781 3.6875 -7.5 C 3.90625 -7.320312 4.050781 -7.101562 4.125 -6.84375 C 4.195312 -6.59375 4.195312 -6.335938 4.125 -6.078125 C 4.050781 -5.828125 3.90625 -5.613281 3.6875 -5.4375 C 3.476562 -5.257812 3.191406 -5.171875 2.828125 -5.171875 L 2.578125 -5.171875 L 2.578125 -2.578125 L 3.328125 -2.578125 C 3.671875 -2.578125 3.945312 -2.488281 4.15625 -2.3125 C 4.363281 -2.144531 4.5 -1.929688 4.5625 -1.671875 C 4.632812 -1.421875 4.632812 -1.164062 4.5625 -0.90625 C 4.5 -0.644531 4.359375 -0.425781 4.140625 -0.25 C 3.929688 -0.0820312 3.65625 0 3.3125 0 L 2.171875 0 C 1.773438 0 1.410156 -0.0976562 1.078125 -0.296875 C 0.753906 -0.492188 0.492188 -0.753906 0.296875 -1.078125 C 0.0976562 -1.410156 0 -1.78125 0 -2.1875 Z M 0 -9.171875 "/></g></g></g><g fill="#a81010" fill-opacity="1"><g transform="translate(52.647109, 17.229451)"><g><path d="M 1.578125 -2.625 C 1.953125 -2.625 2.265625 -2.492188 2.515625 -2.234375 C 2.773438 -1.984375 2.90625 -1.671875 2.90625 -1.296875 C 2.90625 -0.921875 2.773438 -0.597656 2.515625 -0.328125 C 2.265625 -0.0664062 1.953125 0.0625 1.578125 0.0625 C 1.203125 0.0625 0.878906 -0.0664062 0.609375 -0.328125 C 0.347656 -0.597656 0.21875 -0.921875 0.21875 -1.296875 C 0.21875 -1.671875 0.347656 -1.984375 0.609375 -2.234375 C 0.878906 -2.492188 1.203125 -2.625 1.578125 -2.625 Z M 1.578125 -2.625 "/></g></g></g><g fill="#a81010" fill-opacity="1"><g transform="translate(56.151437, 17.229451)"><g/></g></g><g fill="#a81010" fill-opacity="1"><g transform="translate(59.964965, 17.229451)"><g><path d="M 0 -8.140625 C 0 -8.535156 0.0976562 -8.894531 0.296875 -9.21875 C 0.492188 -9.550781 0.753906 -9.816406 1.078125 -10.015625 C 1.410156 -10.210938 1.78125 -10.3125 2.1875 -10.3125 L 5.75 -10.3125 C 6.09375 -10.3125 6.394531 -10.179688 6.65625 -9.921875 C 6.914062 -9.671875 7.046875 -9.367188 7.046875 -9.015625 C 7.046875 -8.671875 6.914062 -8.367188 6.65625 -8.109375 C 6.394531 -7.859375 6.09375 -7.734375 5.75 -7.734375 L 2.578125 -7.734375 L 2.578125 -2.546875 L 5.71875 -2.546875 C 6.070312 -2.546875 6.375 -2.421875 6.625 -2.171875 C 6.882812 -1.929688 7.015625 -1.628906 7.015625 -1.265625 C 7.015625 -0.910156 6.882812 -0.609375 6.625 -0.359375 C 6.375 -0.117188 6.070312 0 5.71875 0 L 2.1875 0 C 1.78125 0 1.410156 -0.0976562 1.078125 -0.296875 C 0.753906 -0.492188 0.492188 -0.753906 0.296875 -1.078125 C 0.0976562 -1.410156 0 -1.78125 0 -2.1875 Z M 0 -8.140625 "/></g></g></g><g fill="#a81010" fill-opacity="1"><g transform="translate(67.444786, 17.229451)"><g><path d="M 0 -9.125 C 0 -9.46875 0.078125 -9.738281 0.234375 -9.9375 C 0.398438 -10.132812 0.601562 -10.265625 0.84375 -10.328125 C 1.082031 -10.398438 1.320312 -10.398438 1.5625 -10.328125 C 1.8125 -10.253906 2.019531 -10.113281 2.1875 -9.90625 C 2.351562 -9.695312 2.4375 -9.414062 2.4375 -9.0625 L 2.4375 -2.625 L 2.90625 -2.625 C 3.257812 -2.625 3.5625 -2.492188 3.8125 -2.234375 C 4.070312 -1.984375 4.203125 -1.675781 4.203125 -1.3125 C 4.203125 -0.957031 4.070312 -0.648438 3.8125 -0.390625 C 3.5625 -0.140625 3.257812 -0.015625 2.90625 -0.015625 L 2.1875 -0.015625 C 1.78125 -0.015625 1.410156 -0.113281 1.078125 -0.3125 C 0.753906 -0.507812 0.492188 -0.773438 0.296875 -1.109375 C 0.0976562 -1.441406 0 -1.804688 0 -2.203125 Z M 0 -9.125 "/></g></g></g><g fill="#a81010" fill-opacity="1"><g transform="translate(71.817831, 17.229451)"><g><path d="M 7.78125 -2.140625 C 7.78125 -1.753906 7.679688 -1.398438 7.484375 -1.078125 C 7.296875 -0.753906 7.039062 -0.492188 6.71875 -0.296875 C 6.394531 -0.0976562 6.035156 0 5.640625 0 L 2.15625 0 C 1.664062 0 1.234375 -0.140625 0.859375 -0.421875 C 0.492188 -0.710938 0.242188 -1.070312 0.109375 -1.5 C 0.046875 -1.695312 0.015625 -1.910156 0.015625 -2.140625 C 0.015625 -2.691406 0.128906 -3.140625 0.359375 -3.484375 C 0.585938 -3.828125 0.882812 -4.128906 1.25 -4.390625 C 1.613281 -4.648438 2 -4.90625 2.40625 -5.15625 L 1.515625 -5.15625 C 1.179688 -5.15625 0.910156 -5.242188 0.703125 -5.421875 C 0.503906 -5.597656 0.367188 -5.8125 0.296875 -6.0625 C 0.234375 -6.320312 0.238281 -6.582031 0.3125 -6.84375 C 0.382812 -7.101562 0.523438 -7.316406 0.734375 -7.484375 C 0.941406 -7.660156 1.210938 -7.742188 1.546875 -7.734375 L 5.671875 -7.734375 C 6.066406 -7.734375 6.421875 -7.640625 6.734375 -7.453125 C 7.054688 -7.265625 7.3125 -7.007812 7.5 -6.6875 C 7.6875 -6.363281 7.78125 -6 7.78125 -5.59375 Z M 2.65625 -5.1875 L 2.65625 -2.609375 L 5.171875 -2.609375 L 5.1875 -5.1875 Z M 2.65625 -5.1875 "/></g></g></g><g fill="#a81010" fill-opacity="1"><g transform="translate(80.181089, 17.229451)"><g><path d="M 4.1875 -7.75 L 4.46875 -7.75 C 4.863281 -7.757812 5.175781 -7.628906 5.40625 -7.359375 C 5.644531 -7.097656 5.753906 -6.796875 5.734375 -6.453125 C 5.734375 -6.128906 5.617188 -5.832031 5.390625 -5.5625 C 5.171875 -5.300781 4.863281 -5.171875 4.46875 -5.171875 L 2.625 -5.171875 L 2.625 -1.25 C 2.625 -0.894531 2.492188 -0.585938 2.234375 -0.328125 C 1.984375 -0.078125 1.675781 0.046875 1.3125 0.046875 C 0.957031 0.046875 0.648438 -0.078125 0.390625 -0.328125 C 0.140625 -0.585938 0.015625 -0.894531 0.015625 -1.25 L 0.015625 -6.5 C 0.015625 -6.851562 0.140625 -7.15625 0.390625 -7.40625 C 0.648438 -7.664062 0.957031 -7.796875 1.3125 -7.796875 C 1.675781 -7.796875 1.96875 -7.664062 2.1875 -7.40625 C 2.40625 -7.15625 2.515625 -6.851562 2.515625 -6.5 L 2.515625 -6.078125 C 2.515625 -6.015625 2.539062 -5.984375 2.59375 -5.984375 C 2.65625 -5.992188 2.691406 -6.023438 2.703125 -6.078125 C 2.742188 -6.347656 2.820312 -6.609375 2.9375 -6.859375 C 3.0625 -7.117188 3.226562 -7.332031 3.4375 -7.5 C 3.644531 -7.664062 3.894531 -7.75 4.1875 -7.75 Z M 4.1875 -7.75 "/></g></g></g><g fill="#a81010" fill-opacity="1"><g transform="translate(86.247396, 17.229451)"><g><path d="M 0 -5.59375 C 0 -5.988281 0.09375 -6.347656 0.28125 -6.671875 C 0.476562 -6.992188 0.734375 -7.253906 1.046875 -7.453125 C 1.367188 -7.648438 1.726562 -7.75 2.125 -7.75 L 5.625 -7.75 C 6.09375 -7.75 6.515625 -7.601562 6.890625 -7.3125 C 7.273438 -7.03125 7.53125 -6.671875 7.65625 -6.234375 C 7.738281 -6.023438 7.78125 -5.8125 7.78125 -5.59375 C 7.78125 -5.050781 7.660156 -4.601562 7.421875 -4.25 C 7.191406 -3.90625 6.890625 -3.601562 6.515625 -3.34375 C 6.148438 -3.09375 5.765625 -2.84375 5.359375 -2.59375 L 6.234375 -2.59375 C 6.578125 -2.59375 6.847656 -2.503906 7.046875 -2.328125 C 7.253906 -2.148438 7.390625 -1.929688 7.453125 -1.671875 C 7.523438 -1.410156 7.523438 -1.148438 7.453125 -0.890625 C 7.390625 -0.640625 7.253906 -0.425781 7.046875 -0.25 C 6.847656 -0.0703125 6.578125 0.0078125 6.234375 0 L 2.15625 0 C 1.757812 0 1.398438 -0.09375 1.078125 -0.28125 C 0.753906 -0.476562 0.492188 -0.734375 0.296875 -1.046875 C 0.0976562 -1.367188 0 -1.726562 0 -2.125 Z M 5.140625 -2.5625 L 5.140625 -5.140625 L 2.59375 -5.140625 L 2.59375 -2.5625 Z M 5.140625 -2.5625 "/></g></g></g><g fill="#a81010" fill-opacity="1"><g transform="translate(94.551762, 17.229451)"><g/></g></g><g fill="#a81010" fill-opacity="1"><g transform="translate(98.36529, 17.229451)"><g><path d="M 0 -8.140625 C 0 -8.535156 0.0976562 -8.894531 0.296875 -9.21875 C 0.492188 -9.550781 0.753906 -9.816406 1.078125 -10.015625 C 1.410156 -10.210938 1.78125 -10.3125 2.1875 -10.3125 L 5.75 -10.3125 C 6.09375 -10.3125 6.394531 -10.179688 6.65625 -9.921875 C 6.914062 -9.671875 7.046875 -9.367188 7.046875 -9.015625 C 7.046875 -8.671875 6.914062 -8.367188 6.65625 -8.109375 C 6.394531 -7.859375 6.09375 -7.734375 5.75 -7.734375 L 2.578125 -7.734375 L 2.578125 -2.546875 L 5.71875 -2.546875 C 6.070312 -2.546875 6.375 -2.421875 6.625 -2.171875 C 6.882812 -1.929688 7.015625 -1.628906 7.015625 -1.265625 C 7.015625 -0.910156 6.882812 -0.609375 6.625 -0.359375 C 6.375 -0.117188 6.070312 0 5.71875 0 L 2.1875 0 C 1.78125 0 1.410156 -0.0976562 1.078125 -0.296875 C 0.753906 -0.492188 0.492188 -0.753906 0.296875 -1.078125 C 0.0976562 -1.410156 0 -1.78125 0 -2.1875 Z M 0 -8.140625 "/></g></g></g><g fill="#a81010" fill-opacity="1"><g transform="translate(105.845111, 17.229451)"><g><path d="M 0 -5.5625 C 0 -5.96875 0.0976562 -6.332031 0.296875 -6.65625 C 0.492188 -6.988281 0.757812 -7.253906 1.09375 -7.453125 C 1.425781 -7.648438 1.789062 -7.75 2.1875 -7.75 L 5.46875 -7.75 C 5.863281 -7.75 6.222656 -7.648438 6.546875 -7.453125 C 6.878906 -7.253906 7.144531 -6.988281 7.34375 -6.65625 C 7.539062 -6.332031 7.640625 -5.96875 7.640625 -5.5625 L 7.640625 -2.1875 C 7.640625 -1.78125 7.539062 -1.410156 7.34375 -1.078125 C 7.144531 -0.742188 6.878906 -0.476562 6.546875 -0.28125 C 6.222656 -0.09375 5.863281 0 5.46875 0 L 2.1875 0 C 1.789062 0 1.425781 -0.09375 1.09375 -0.28125 C 0.757812 -0.476562 0.492188 -0.742188 0.296875 -1.078125 C 0.0976562 -1.410156 0 -1.78125 0 -2.1875 Z M 2.59375 -2.53125 L 5.0625 -2.53125 L 5.0625 -5.1875 L 2.59375 -5.1875 Z M 2.59375 -2.53125 "/></g></g></g><g fill="#a81010" fill-opacity="1"><g transform="translate(114.061135, 17.229451)"><g><path d="M 0 -9.125 C 0 -9.46875 0.078125 -9.738281 0.234375 -9.9375 C 0.398438 -10.132812 0.601562 -10.265625 0.84375 -10.328125 C 1.082031 -10.398438 1.320312 -10.398438 1.5625 -10.328125 C 1.8125 -10.253906 2.019531 -10.113281 2.1875 -9.90625 C 2.351562 -9.695312 2.4375 -9.414062 2.4375 -9.0625 L 2.4375 -2.625 L 2.90625 -2.625 C 3.257812 -2.625 3.5625 -2.492188 3.8125 -2.234375 C 4.070312 -1.984375 4.203125 -1.675781 4.203125 -1.3125 C 4.203125 -0.957031 4.070312 -0.648438 3.8125 -0.390625 C 3.5625 -0.140625 3.257812 -0.015625 2.90625 -0.015625 L 2.1875 -0.015625 C 1.78125 -0.015625 1.410156 -0.113281 1.078125 -0.3125 C 0.753906 -0.507812 0.492188 -0.773438 0.296875 -1.109375 C 0.0976562 -1.441406 0 -1.804688 0 -2.203125 Z M 0 -9.125 "/></g></g></g><g fill="#a81010" fill-opacity="1"><g transform="translate(118.43418, 17.229451)"><g><path d="M 0 -9.125 C 0 -9.46875 0.078125 -9.738281 0.234375 -9.9375 C 0.398438 -10.132812 0.601562 -10.265625 0.84375 -10.328125 C 1.082031 -10.398438 1.320312 -10.398438 1.5625 -10.328125 C 1.8125 -10.253906 2.019531 -10.113281 2.1875 -9.90625 C 2.351562 -9.695312 2.4375 -9.414062 2.4375 -9.0625 L 2.4375 -2.625 L 2.90625 -2.625 C 3.257812 -2.625 3.5625 -2.492188 3.8125 -2.234375 C 4.070312 -1.984375 4.203125 -1.675781 4.203125 -1.3125 C 4.203125 -0.957031 4.070312 -0.648438 3.8125 -0.390625 C 3.5625 -0.140625 3.257812 -0.015625 2.90625 -0.015625 L 2.1875 -0.015625 C 1.78125 -0.015625 1.410156 -0.113281 1.078125 -0.3125 C 0.753906 -0.507812 0.492188 -0.773438 0.296875 -1.109375 C 0.0976562 -1.441406 0 -1.804688 0 -2.203125 Z M 0 -9.125 "/></g></g></g><g fill="#a81010" fill-opacity="1"><g transform="translate(122.807225, 17.229451)"><g><path d="M 0 -5.59375 C 0 -5.988281 0.09375 -6.347656 0.28125 -6.671875 C 0.476562 -6.992188 0.734375 -7.253906 1.046875 -7.453125 C 1.367188 -7.648438 1.726562 -7.75 2.125 -7.75 L 5.625 -7.75 C 6.09375 -7.75 6.515625 -7.601562 6.890625 -7.3125 C 7.273438 -7.03125 7.53125 -6.671875 7.65625 -6.234375 C 7.738281 -6.023438 7.78125 -5.8125 7.78125 -5.59375 C 7.78125 -5.050781 7.660156 -4.601562 7.421875 -4.25 C 7.191406 -3.90625 6.890625 -3.601562 6.515625 -3.34375 C 6.148438 -3.09375 5.765625 -2.84375 5.359375 -2.59375 L 6.234375 -2.59375 C 6.578125 -2.59375 6.847656 -2.503906 7.046875 -2.328125 C 7.253906 -2.148438 7.390625 -1.929688 7.453125 -1.671875 C 7.523438 -1.410156 7.523438 -1.148438 7.453125 -0.890625 C 7.390625 -0.640625 7.253906 -0.425781 7.046875 -0.25 C 6.847656 -0.0703125 6.578125 0.0078125 6.234375 0 L 2.15625 0 C 1.757812 0 1.398438 -0.09375 1.078125 -0.28125 C 0.753906 -0.476562 0.492188 -0.734375 0.296875 -1.046875 C 0.0976562 -1.367188 0 -1.726562 0 -2.125 Z M 5.140625 -2.5625 L 5.140625 -5.140625 L 2.59375 -5.140625 L 2.59375 -2.5625 Z M 5.140625 -2.5625 "/></g></g></g><g fill="#a81010" fill-opacity="1"><g transform="translate(131.111592, 17.229451)"><g><path d="M 5.625 -7.75 C 6.039062 -7.75 6.410156 -7.648438 6.734375 -7.453125 C 7.066406 -7.253906 7.328125 -6.992188 7.515625 -6.671875 C 7.710938 -6.347656 7.8125 -5.988281 7.8125 -5.59375 L 7.8125 0.453125 C 7.8125 0.847656 7.710938 1.210938 7.515625 1.546875 C 7.316406 1.878906 7.050781 2.144531 6.71875 2.34375 C 6.394531 2.539062 6.03125 2.640625 5.625 2.640625 L 4.015625 2.640625 C 3.660156 2.640625 3.351562 2.515625 3.09375 2.265625 C 2.84375 2.023438 2.71875 1.71875 2.71875 1.34375 C 2.71875 0.96875 2.847656 0.65625 3.109375 0.40625 C 3.367188 0.164062 3.679688 0.046875 4.046875 0.046875 L 5.234375 0.046875 L 5.234375 -5.15625 L 2.609375 -5.15625 L 2.609375 -2.578125 L 5.0625 -2.578125 C 4.695312 -1.617188 4.296875 -0.941406 3.859375 -0.546875 C 3.421875 -0.148438 2.875 0.046875 2.21875 0.046875 C 1.820312 0.046875 1.453125 -0.0507812 1.109375 -0.25 C 0.773438 -0.457031 0.507812 -0.722656 0.3125 -1.046875 C 0.113281 -1.378906 0.015625 -1.742188 0.015625 -2.140625 L 0.015625 -5.59375 C 0.015625 -5.988281 0.113281 -6.347656 0.3125 -6.671875 C 0.507812 -6.992188 0.773438 -7.253906 1.109375 -7.453125 C 1.453125 -7.648438 1.820312 -7.75 2.21875 -7.75 Z M 5.625 -7.75 "/></g></g></g><g fill="#a81010" fill-opacity="1"><g transform="translate(139.504301, 17.229451)"><g><path d="M 0 -5.59375 C 0 -5.988281 0.09375 -6.347656 0.28125 -6.671875 C 0.476562 -6.992188 0.734375 -7.253906 1.046875 -7.453125 C 1.367188 -7.648438 1.726562 -7.75 2.125 -7.75 L 5.625 -7.75 C 6.09375 -7.75 6.515625 -7.601562 6.890625 -7.3125 C 7.273438 -7.03125 7.53125 -6.671875 7.65625 -6.234375 C 7.738281 -6.023438 7.78125 -5.8125 7.78125 -5.59375 C 7.78125 -5.050781 7.660156 -4.601562 7.421875 -4.25 C 7.191406 -3.90625 6.890625 -3.601562 6.515625 -3.34375 C 6.148438 -3.09375 5.765625 -2.84375 5.359375 -2.59375 L 6.234375 -2.59375 C 6.578125 -2.59375 6.847656 -2.503906 7.046875 -2.328125 C 7.253906 -2.148438 7.390625 -1.929688 7.453125 -1.671875 C 7.523438 -1.410156 7.523438 -1.148438 7.453125 -0.890625 C 7.390625 -0.640625 7.253906 -0.425781 7.046875 -0.25 C 6.847656 -0.0703125 6.578125 0.0078125 6.234375 0 L 2.15625 0 C 1.757812 0 1.398438 -0.09375 1.078125 -0.28125 C 0.753906 -0.476562 0.492188 -0.734375 0.296875 -1.046875 C 0.0976562 -1.367188 0 -1.726562 0 -2.125 Z M 5.140625 -2.5625 L 5.140625 -5.140625 L 2.59375 -5.140625 L 2.59375 -2.5625 Z M 5.140625 -2.5625 "/></g></g></g><g fill="#000000" fill-opacity="1"><g transform="translate(39.660498, 26.219419)"><g><path d="M 1.40625 -4.9375 C 1.59375 -5.082031 1.757812 -5.15625 1.90625 -5.15625 C 2.0625 -5.164062 2.226562 -5.09375 2.40625 -4.9375 L 3.375 -4.15625 C 3.507812 -4.039062 3.613281 -3.925781 3.6875 -3.8125 C 3.769531 -3.695312 3.816406 -3.550781 3.828125 -3.375 L 3.828125 -0.59375 C 3.828125 -0.425781 3.765625 -0.28125 3.640625 -0.15625 C 3.515625 -0.03125 3.367188 0.03125 3.203125 0.03125 C 3.015625 0.03125 2.859375 -0.03125 2.734375 -0.15625 C 2.609375 -0.28125 2.546875 -0.425781 2.546875 -0.59375 L 2.546875 -1.21875 L 1.28125 -2.40625 L 1.28125 -0.59375 C 1.28125 -0.425781 1.21875 -0.28125 1.09375 -0.15625 C 0.96875 -0.03125 0.816406 0.03125 0.640625 0.03125 C 0.460938 0.03125 0.3125 -0.03125 0.1875 -0.15625 C 0.0625 -0.28125 0 -0.425781 0 -0.59375 L 0 -3.375 C 0.0078125 -3.550781 0.0546875 -3.695312 0.140625 -3.8125 C 0.222656 -3.925781 0.332031 -4.039062 0.46875 -4.15625 Z M 2.546875 -2.5 L 2.546875 -3.828125 L 1.28125 -3.828125 L 1.28125 -2.5 Z M 2.546875 -2.5 "/></g></g></g><g fill="#000000" fill-opacity="1"><g transform="translate(43.788847, 26.219419)"><g><path d="M 0 -4.5625 C 0 -4.726562 0.0625 -4.875 0.1875 -5 C 0.3125 -5.132812 0.460938 -5.203125 0.640625 -5.203125 C 0.816406 -5.203125 0.96875 -5.132812 1.09375 -5 C 1.21875 -4.875 1.28125 -4.726562 1.28125 -4.5625 L 1.28125 -3.859375 L 1.40625 -3.859375 C 1.582031 -3.859375 1.722656 -3.8125 1.828125 -3.71875 C 1.941406 -3.632812 2.015625 -3.523438 2.046875 -3.390625 C 2.078125 -3.265625 2.078125 -3.140625 2.046875 -3.015625 C 2.015625 -2.890625 1.941406 -2.78125 1.828125 -2.6875 C 1.722656 -2.601562 1.582031 -2.5625 1.40625 -2.5625 L 1.28125 -2.5625 L 1.28125 -1.28125 L 1.65625 -1.28125 C 1.820312 -1.28125 1.957031 -1.238281 2.0625 -1.15625 C 2.164062 -1.070312 2.234375 -0.960938 2.265625 -0.828125 C 2.296875 -0.703125 2.296875 -0.570312 2.265625 -0.4375 C 2.234375 -0.3125 2.164062 -0.207031 2.0625 -0.125 C 1.957031 -0.0390625 1.816406 0 1.640625 0 L 1.078125 0 C 0.878906 0 0.695312 -0.046875 0.53125 -0.140625 C 0.375 -0.242188 0.242188 -0.375 0.140625 -0.53125 C 0.046875 -0.695312 0 -0.878906 0 -1.078125 Z M 0 -4.5625 "/></g></g></g><g fill="#000000" fill-opacity="1"><g transform="translate(46.270245, 26.219419)"><g><path d="M 0 -4.5625 C 0 -4.726562 0.0625 -4.875 0.1875 -5 C 0.3125 -5.132812 0.460938 -5.203125 0.640625 -5.203125 C 0.816406 -5.203125 0.96875 -5.132812 1.09375 -5 C 1.21875 -4.875 1.28125 -4.726562 1.28125 -4.5625 L 1.28125 -3.859375 L 1.40625 -3.859375 C 1.582031 -3.859375 1.722656 -3.8125 1.828125 -3.71875 C 1.941406 -3.632812 2.015625 -3.523438 2.046875 -3.390625 C 2.078125 -3.265625 2.078125 -3.140625 2.046875 -3.015625 C 2.015625 -2.890625 1.941406 -2.78125 1.828125 -2.6875 C 1.722656 -2.601562 1.582031 -2.5625 1.40625 -2.5625 L 1.28125 -2.5625 L 1.28125 -1.28125 L 1.65625 -1.28125 C 1.820312 -1.28125 1.957031 -1.238281 2.0625 -1.15625 C 2.164062 -1.070312 2.234375 -0.960938 2.265625 -0.828125 C 2.296875 -0.703125 2.296875 -0.570312 2.265625 -0.4375 C 2.234375 -0.3125 2.164062 -0.207031 2.0625 -0.125 C 1.957031 -0.0390625 1.816406 0 1.640625 0 L 1.078125 0 C 0.878906 0 0.695312 -0.046875 0.53125 -0.140625 C 0.375 -0.242188 0.242188 -0.375 0.140625 -0.53125 C 0.046875 -0.695312 0 -0.878906 0 -1.078125 Z M 0 -4.5625 "/></g></g></g><g fill="#000000" fill-opacity="1"><g transform="translate(48.751642, 26.219419)"><g><path d="M 0 -2.78125 C 0 -2.976562 0.046875 -3.15625 0.140625 -3.3125 C 0.234375 -3.46875 0.359375 -3.59375 0.515625 -3.6875 C 0.679688 -3.789062 0.859375 -3.84375 1.046875 -3.84375 L 2.796875 -3.84375 C 3.023438 -3.84375 3.234375 -3.769531 3.421875 -3.625 C 3.609375 -3.488281 3.734375 -3.3125 3.796875 -3.09375 C 3.835938 -2.988281 3.859375 -2.882812 3.859375 -2.78125 C 3.859375 -2.507812 3.800781 -2.285156 3.6875 -2.109375 C 3.570312 -1.929688 3.421875 -1.78125 3.234375 -1.65625 C 3.054688 -1.539062 2.863281 -1.414062 2.65625 -1.28125 L 3.09375 -1.28125 C 3.257812 -1.28125 3.394531 -1.238281 3.5 -1.15625 C 3.601562 -1.070312 3.671875 -0.960938 3.703125 -0.828125 C 3.734375 -0.703125 3.734375 -0.570312 3.703125 -0.4375 C 3.671875 -0.3125 3.601562 -0.207031 3.5 -0.125 C 3.394531 -0.0390625 3.257812 0 3.09375 0 L 1.0625 0 C 0.875 0 0.695312 -0.046875 0.53125 -0.140625 C 0.375 -0.234375 0.242188 -0.359375 0.140625 -0.515625 C 0.046875 -0.679688 0 -0.859375 0 -1.046875 Z M 2.546875 -1.265625 L 2.546875 -2.546875 L 1.28125 -2.546875 L 1.28125 -1.265625 Z M 2.546875 -1.265625 "/></g></g></g><g fill="#000000" fill-opacity="1"><g transform="translate(52.879991, 26.219419)"><g><path d="M 3.78125 -0.640625 C 3.78125 -0.453125 3.71875 -0.296875 3.59375 -0.171875 C 3.46875 -0.046875 3.3125 0.015625 3.125 0.015625 C 2.945312 0.015625 2.796875 -0.046875 2.671875 -0.171875 C 2.546875 -0.296875 2.484375 -0.453125 2.484375 -0.640625 L 2.484375 -2.578125 L 1.28125 -2.578125 L 1.28125 -0.609375 C 1.28125 -0.441406 1.21875 -0.296875 1.09375 -0.171875 C 0.96875 -0.046875 0.816406 0.015625 0.640625 0.015625 C 0.460938 0.015625 0.3125 -0.046875 0.1875 -0.171875 C 0.0625 -0.296875 0 -0.441406 0 -0.609375 L 0 -3.21875 C 0 -3.40625 0.0625 -3.5625 0.1875 -3.6875 C 0.3125 -3.820312 0.460938 -3.890625 0.640625 -3.890625 C 0.816406 -3.890625 0.96875 -3.820312 1.09375 -3.6875 C 1.21875 -3.5625 1.28125 -3.40625 1.28125 -3.21875 L 1.28125 -3 C 1.28125 -2.976562 1.285156 -2.96875 1.296875 -2.96875 C 1.304688 -2.96875 1.316406 -2.976562 1.328125 -3 C 1.421875 -3.289062 1.566406 -3.507812 1.765625 -3.65625 C 1.972656 -3.800781 2.210938 -3.875 2.484375 -3.875 C 2.734375 -3.875 2.953125 -3.820312 3.140625 -3.71875 C 3.335938 -3.625 3.492188 -3.484375 3.609375 -3.296875 C 3.722656 -3.117188 3.78125 -2.90625 3.78125 -2.65625 Z M 3.78125 -0.640625 "/></g></g></g><g fill="#000000" fill-opacity="1"><g transform="translate(56.957103, 26.219419)"><g><path d="M 1.0625 0 C 0.863281 0 0.679688 -0.046875 0.515625 -0.140625 C 0.359375 -0.242188 0.234375 -0.378906 0.140625 -0.546875 C 0.046875 -0.710938 0 -0.894531 0 -1.09375 L 0 -2.78125 C 0 -2.976562 0.046875 -3.15625 0.140625 -3.3125 C 0.234375 -3.46875 0.359375 -3.59375 0.515625 -3.6875 C 0.679688 -3.789062 0.863281 -3.847656 1.0625 -3.859375 C 1.5 -3.867188 1.828125 -3.789062 2.046875 -3.625 C 2.265625 -3.457031 2.429688 -3.1875 2.546875 -2.8125 L 2.546875 -4.5 C 2.546875 -4.6875 2.609375 -4.835938 2.734375 -4.953125 C 2.867188 -5.078125 3.023438 -5.140625 3.203125 -5.140625 C 3.367188 -5.140625 3.515625 -5.078125 3.640625 -4.953125 C 3.765625 -4.835938 3.828125 -4.6875 3.828125 -4.5 L 3.828125 -1.09375 C 3.828125 -0.894531 3.78125 -0.710938 3.6875 -0.546875 C 3.59375 -0.378906 3.460938 -0.242188 3.296875 -0.140625 C 3.140625 -0.046875 2.957031 0 2.75 0 Z M 2.546875 -2.578125 L 1.265625 -2.578125 L 1.265625 -1.296875 L 2.546875 -1.296875 Z M 2.546875 -2.578125 "/></g></g></g><g fill="#000000" fill-opacity="1"><g transform="translate(61.085452, 26.219419)"><g><path d="M 3.859375 -1.0625 C 3.859375 -0.875 3.8125 -0.695312 3.71875 -0.53125 C 3.625 -0.375 3.492188 -0.242188 3.328125 -0.140625 C 3.171875 -0.046875 2.992188 0 2.796875 0 L 1.0625 0 C 0.820312 0 0.609375 -0.0664062 0.421875 -0.203125 C 0.242188 -0.347656 0.117188 -0.53125 0.046875 -0.75 C 0.015625 -0.84375 0 -0.945312 0 -1.0625 C 0 -1.332031 0.0546875 -1.550781 0.171875 -1.71875 C 0.285156 -1.894531 0.429688 -2.046875 0.609375 -2.171875 C 0.796875 -2.304688 0.988281 -2.4375 1.1875 -2.5625 L 0.75 -2.5625 C 0.582031 -2.5625 0.445312 -2.601562 0.34375 -2.6875 C 0.25 -2.78125 0.1875 -2.890625 0.15625 -3.015625 C 0.125 -3.140625 0.125 -3.265625 0.15625 -3.390625 C 0.195312 -3.523438 0.265625 -3.632812 0.359375 -3.71875 C 0.460938 -3.800781 0.597656 -3.84375 0.765625 -3.84375 L 2.8125 -3.84375 C 3.007812 -3.84375 3.1875 -3.796875 3.34375 -3.703125 C 3.5 -3.609375 3.625 -3.476562 3.71875 -3.3125 C 3.8125 -3.15625 3.859375 -2.976562 3.859375 -2.78125 Z M 1.3125 -2.578125 L 1.3125 -1.296875 L 2.5625 -1.296875 L 2.578125 -2.578125 Z M 1.3125 -2.578125 "/></g></g></g><g fill="#000000" fill-opacity="1"><g transform="translate(65.243083, 26.219419)"><g><path d="M 3.78125 -0.640625 C 3.78125 -0.453125 3.71875 -0.296875 3.59375 -0.171875 C 3.46875 -0.046875 3.3125 0.015625 3.125 0.015625 C 2.945312 0.015625 2.796875 -0.046875 2.671875 -0.171875 C 2.546875 -0.296875 2.484375 -0.453125 2.484375 -0.640625 L 2.484375 -2.578125 L 1.28125 -2.578125 L 1.28125 -0.609375 C 1.28125 -0.441406 1.21875 -0.296875 1.09375 -0.171875 C 0.96875 -0.046875 0.816406 0.015625 0.640625 0.015625 C 0.460938 0.015625 0.3125 -0.046875 0.1875 -0.171875 C 0.0625 -0.296875 0 -0.441406 0 -0.609375 L 0 -3.21875 C 0 -3.40625 0.0625 -3.5625 0.1875 -3.6875 C 0.3125 -3.820312 0.460938 -3.890625 0.640625 -3.890625 C 0.816406 -3.890625 0.96875 -3.820312 1.09375 -3.6875 C 1.21875 -3.5625 1.28125 -3.40625 1.28125 -3.21875 L 1.28125 -3 C 1.28125 -2.976562 1.285156 -2.96875 1.296875 -2.96875 C 1.304688 -2.96875 1.316406 -2.976562 1.328125 -3 C 1.421875 -3.289062 1.566406 -3.507812 1.765625 -3.65625 C 1.972656 -3.800781 2.210938 -3.875 2.484375 -3.875 C 2.734375 -3.875 2.953125 -3.820312 3.140625 -3.71875 C 3.335938 -3.625 3.492188 -3.484375 3.609375 -3.296875 C 3.722656 -3.117188 3.78125 -2.90625 3.78125 -2.65625 Z M 3.78125 -0.640625 "/></g></g></g><g fill="#000000" fill-opacity="1"><g transform="translate(69.320195, 26.219419)"><g><path d="M 0 -2.75 C 0 -2.957031 0.046875 -3.144531 0.140625 -3.3125 C 0.242188 -3.476562 0.378906 -3.609375 0.546875 -3.703125 C 0.710938 -3.804688 0.894531 -3.859375 1.09375 -3.859375 L 2.65625 -3.859375 C 2.832031 -3.859375 2.984375 -3.789062 3.109375 -3.65625 C 3.234375 -3.53125 3.296875 -3.382812 3.296875 -3.21875 C 3.296875 -3.039062 3.234375 -2.890625 3.109375 -2.765625 C 2.984375 -2.640625 2.828125 -2.578125 2.640625 -2.578125 L 1.28125 -2.5625 L 1.28125 -1.28125 L 2.640625 -1.28125 C 2.816406 -1.28125 2.96875 -1.21875 3.09375 -1.09375 C 3.226562 -0.96875 3.296875 -0.8125 3.296875 -0.625 C 3.296875 -0.445312 3.226562 -0.296875 3.09375 -0.171875 C 2.96875 -0.0546875 2.816406 0 2.640625 0 L 1.09375 0 C 0.894531 0 0.710938 -0.046875 0.546875 -0.140625 C 0.378906 -0.242188 0.242188 -0.375 0.140625 -0.53125 C 0.046875 -0.695312 0 -0.878906 0 -1.078125 Z M 0 -2.75 "/></g></g></g><g fill="#000000" fill-opacity="1"><g transform="translate(72.826366, 26.219419)"><g><path d="M 0 -2.78125 C 0 -2.976562 0.046875 -3.15625 0.140625 -3.3125 C 0.234375 -3.46875 0.359375 -3.59375 0.515625 -3.6875 C 0.679688 -3.789062 0.859375 -3.84375 1.046875 -3.84375 L 2.796875 -3.84375 C 3.023438 -3.84375 3.234375 -3.769531 3.421875 -3.625 C 3.609375 -3.488281 3.734375 -3.3125 3.796875 -3.09375 C 3.835938 -2.988281 3.859375 -2.882812 3.859375 -2.78125 C 3.859375 -2.507812 3.800781 -2.285156 3.6875 -2.109375 C 3.570312 -1.929688 3.421875 -1.78125 3.234375 -1.65625 C 3.054688 -1.539062 2.863281 -1.414062 2.65625 -1.28125 L 3.09375 -1.28125 C 3.257812 -1.28125 3.394531 -1.238281 3.5 -1.15625 C 3.601562 -1.070312 3.671875 -0.960938 3.703125 -0.828125 C 3.734375 -0.703125 3.734375 -0.570312 3.703125 -0.4375 C 3.671875 -0.3125 3.601562 -0.207031 3.5 -0.125 C 3.394531 -0.0390625 3.257812 0 3.09375 0 L 1.0625 0 C 0.875 0 0.695312 -0.046875 0.53125 -0.140625 C 0.375 -0.234375 0.242188 -0.359375 0.140625 -0.515625 C 0.046875 -0.679688 0 -0.859375 0 -1.046875 Z M 2.546875 -1.265625 L 2.546875 -2.546875 L 1.28125 -2.546875 L 1.28125 -1.265625 Z M 2.546875 -1.265625 "/></g></g></g><g fill="#000000" fill-opacity="1"><g transform="translate(76.954716, 26.219419)"><g/></g></g><g fill="#000000" fill-opacity="1"><g transform="translate(78.850532, 26.219419)"><g><path d="M 1.1875 -4.921875 C 1.332031 -5.078125 1.5 -5.15625 1.6875 -5.15625 C 1.882812 -5.15625 2.054688 -5.078125 2.203125 -4.921875 L 2.75 -4.328125 L 3.3125 -4.921875 C 3.46875 -5.078125 3.640625 -5.15625 3.828125 -5.15625 C 4.023438 -5.15625 4.195312 -5.078125 4.34375 -4.921875 L 5.09375 -4.140625 C 5.195312 -4.015625 5.289062 -3.898438 5.375 -3.796875 C 5.46875 -3.691406 5.523438 -3.550781 5.546875 -3.375 L 5.546875 -0.578125 C 5.546875 -0.421875 5.5 -0.289062 5.40625 -0.1875 C 5.320312 -0.0820312 5.21875 -0.015625 5.09375 0.015625 C 4.96875 0.046875 4.835938 0.046875 4.703125 0.015625 C 4.578125 -0.015625 4.46875 -0.0820312 4.375 -0.1875 C 4.289062 -0.289062 4.25 -0.421875 4.25 -0.578125 L 4.25 -3.828125 L 3.40625 -3.828125 L 3.40625 -0.578125 C 3.40625 -0.410156 3.359375 -0.273438 3.265625 -0.171875 C 3.179688 -0.0664062 3.078125 0 2.953125 0.03125 C 2.828125 0.0625 2.695312 0.0625 2.5625 0.03125 C 2.4375 0 2.332031 -0.0664062 2.25 -0.171875 C 2.164062 -0.273438 2.125 -0.410156 2.125 -0.578125 L 2.125 -3.828125 L 1.28125 -3.828125 L 1.28125 -0.578125 C 1.28125 -0.421875 1.234375 -0.289062 1.140625 -0.1875 C 1.054688 -0.0820312 0.953125 -0.015625 0.828125 0.015625 C 0.703125 0.046875 0.570312 0.046875 0.4375 0.015625 C 0.3125 -0.015625 0.207031 -0.0820312 0.125 -0.1875 C 0.0390625 -0.289062 0 -0.421875 0 -0.578125 L 0 -3.375 C 0 -3.550781 0.0390625 -3.691406 0.125 -3.796875 C 0.21875 -3.898438 0.328125 -4.015625 0.453125 -4.140625 Z M 1.1875 -4.921875 "/></g></g></g><g fill="#000000" fill-opacity="1"><g transform="translate(84.691703, 26.219419)"><g><path d="M 3.859375 -1.0625 C 3.859375 -0.875 3.8125 -0.695312 3.71875 -0.53125 C 3.625 -0.375 3.492188 -0.242188 3.328125 -0.140625 C 3.171875 -0.046875 2.992188 0 2.796875 0 L 1.0625 0 C 0.820312 0 0.609375 -0.0664062 0.421875 -0.203125 C 0.242188 -0.347656 0.117188 -0.53125 0.046875 -0.75 C 0.015625 -0.84375 0 -0.945312 0 -1.0625 C 0 -1.332031 0.0546875 -1.550781 0.171875 -1.71875 C 0.285156 -1.894531 0.429688 -2.046875 0.609375 -2.171875 C 0.796875 -2.304688 0.988281 -2.4375 1.1875 -2.5625 L 0.75 -2.5625 C 0.582031 -2.5625 0.445312 -2.601562 0.34375 -2.6875 C 0.25 -2.78125 0.1875 -2.890625 0.15625 -3.015625 C 0.125 -3.140625 0.125 -3.265625 0.15625 -3.390625 C 0.195312 -3.523438 0.265625 -3.632812 0.359375 -3.71875 C 0.460938 -3.800781 0.597656 -3.84375 0.765625 -3.84375 L 2.8125 -3.84375 C 3.007812 -3.84375 3.1875 -3.796875 3.34375 -3.703125 C 3.5 -3.609375 3.625 -3.476562 3.71875 -3.3125 C 3.8125 -3.15625 3.859375 -2.976562 3.859375 -2.78125 Z M 1.3125 -2.578125 L 1.3125 -1.296875 L 2.5625 -1.296875 L 2.578125 -2.578125 Z M 1.3125 -2.578125 "/></g></g></g><g fill="#000000" fill-opacity="1"><g transform="translate(88.849333, 26.219419)"><g><path d="M 3.78125 -0.640625 C 3.78125 -0.453125 3.71875 -0.296875 3.59375 -0.171875 C 3.46875 -0.046875 3.3125 0.015625 3.125 0.015625 C 2.945312 0.015625 2.796875 -0.046875 2.671875 -0.171875 C 2.546875 -0.296875 2.484375 -0.453125 2.484375 -0.640625 L 2.484375 -2.578125 L 1.28125 -2.578125 L 1.28125 -0.609375 C 1.28125 -0.441406 1.21875 -0.296875 1.09375 -0.171875 C 0.96875 -0.046875 0.816406 0.015625 0.640625 0.015625 C 0.460938 0.015625 0.3125 -0.046875 0.1875 -0.171875 C 0.0625 -0.296875 0 -0.441406 0 -0.609375 L 0 -3.21875 C 0 -3.40625 0.0625 -3.5625 0.1875 -3.6875 C 0.3125 -3.820312 0.460938 -3.890625 0.640625 -3.890625 C 0.816406 -3.890625 0.96875 -3.820312 1.09375 -3.6875 C 1.21875 -3.5625 1.28125 -3.40625 1.28125 -3.21875 L 1.28125 -3 C 1.28125 -2.976562 1.285156 -2.96875 1.296875 -2.96875 C 1.304688 -2.96875 1.316406 -2.976562 1.328125 -3 C 1.421875 -3.289062 1.566406 -3.507812 1.765625 -3.65625 C 1.972656 -3.800781 2.210938 -3.875 2.484375 -3.875 C 2.734375 -3.875 2.953125 -3.820312 3.140625 -3.71875 C 3.335938 -3.625 3.492188 -3.484375 3.609375 -3.296875 C 3.722656 -3.117188 3.78125 -2.90625 3.78125 -2.65625 Z M 3.78125 -0.640625 "/></g></g></g><g fill="#000000" fill-opacity="1"><g transform="translate(92.926445, 26.219419)"><g><path d="M 3.859375 -1.0625 C 3.859375 -0.875 3.8125 -0.695312 3.71875 -0.53125 C 3.625 -0.375 3.492188 -0.242188 3.328125 -0.140625 C 3.171875 -0.046875 2.992188 0 2.796875 0 L 1.0625 0 C 0.820312 0 0.609375 -0.0664062 0.421875 -0.203125 C 0.242188 -0.347656 0.117188 -0.53125 0.046875 -0.75 C 0.015625 -0.84375 0 -0.945312 0 -1.0625 C 0 -1.332031 0.0546875 -1.550781 0.171875 -1.71875 C 0.285156 -1.894531 0.429688 -2.046875 0.609375 -2.171875 C 0.796875 -2.304688 0.988281 -2.4375 1.1875 -2.5625 L 0.75 -2.5625 C 0.582031 -2.5625 0.445312 -2.601562 0.34375 -2.6875 C 0.25 -2.78125 0.1875 -2.890625 0.15625 -3.015625 C 0.125 -3.140625 0.125 -3.265625 0.15625 -3.390625 C 0.195312 -3.523438 0.265625 -3.632812 0.359375 -3.71875 C 0.460938 -3.800781 0.597656 -3.84375 0.765625 -3.84375 L 2.8125 -3.84375 C 3.007812 -3.84375 3.1875 -3.796875 3.34375 -3.703125 C 3.5 -3.609375 3.625 -3.476562 3.71875 -3.3125 C 3.8125 -3.15625 3.859375 -2.976562 3.859375 -2.78125 Z M 1.3125 -2.578125 L 1.3125 -1.296875 L 2.5625 -1.296875 L 2.578125 -2.578125 Z M 1.3125 -2.578125 "/></g></g></g><g fill="#000000" fill-opacity="1"><g transform="translate(97.084076, 26.219419)"><g><path d="M 2.796875 -3.84375 C 2.992188 -3.84375 3.175781 -3.789062 3.34375 -3.6875 C 3.507812 -3.59375 3.640625 -3.46875 3.734375 -3.3125 C 3.828125 -3.15625 3.875 -2.976562 3.875 -2.78125 L 3.875 0.234375 C 3.875 0.421875 3.820312 0.597656 3.71875 0.765625 C 3.625 0.929688 3.492188 1.0625 3.328125 1.15625 C 3.171875 1.257812 2.992188 1.3125 2.796875 1.3125 L 2 1.3125 C 1.820312 1.3125 1.671875 1.25 1.546875 1.125 C 1.421875 1 1.359375 0.847656 1.359375 0.671875 C 1.359375 0.484375 1.421875 0.328125 1.546875 0.203125 C 1.671875 0.078125 1.828125 0.015625 2.015625 0.015625 L 2.59375 0.015625 L 2.59375 -2.5625 L 1.296875 -2.5625 L 1.296875 -1.28125 L 2.515625 -1.28125 C 2.335938 -0.800781 2.140625 -0.460938 1.921875 -0.265625 C 1.703125 -0.078125 1.429688 0.015625 1.109375 0.015625 C 0.898438 0.015625 0.710938 -0.03125 0.546875 -0.125 C 0.378906 -0.226562 0.242188 -0.359375 0.140625 -0.515625 C 0.046875 -0.679688 0 -0.863281 0 -1.0625 L 0 -2.78125 C 0 -2.976562 0.046875 -3.15625 0.140625 -3.3125 C 0.242188 -3.46875 0.378906 -3.59375 0.546875 -3.6875 C 0.710938 -3.789062 0.898438 -3.84375 1.109375 -3.84375 Z M 2.796875 -3.84375 "/></g></g></g><g fill="#000000" fill-opacity="1"><g transform="translate(101.256338, 26.219419)"><g><path d="M 0 -2.78125 C 0 -2.976562 0.046875 -3.15625 0.140625 -3.3125 C 0.234375 -3.46875 0.359375 -3.59375 0.515625 -3.6875 C 0.679688 -3.789062 0.859375 -3.84375 1.046875 -3.84375 L 2.796875 -3.84375 C 3.023438 -3.84375 3.234375 -3.769531 3.421875 -3.625 C 3.609375 -3.488281 3.734375 -3.3125 3.796875 -3.09375 C 3.835938 -2.988281 3.859375 -2.882812 3.859375 -2.78125 C 3.859375 -2.507812 3.800781 -2.285156 3.6875 -2.109375 C 3.570312 -1.929688 3.421875 -1.78125 3.234375 -1.65625 C 3.054688 -1.539062 2.863281 -1.414062 2.65625 -1.28125 L 3.09375 -1.28125 C 3.257812 -1.28125 3.394531 -1.238281 3.5 -1.15625 C 3.601562 -1.070312 3.671875 -0.960938 3.703125 -0.828125 C 3.734375 -0.703125 3.734375 -0.570312 3.703125 -0.4375 C 3.671875 -0.3125 3.601562 -0.207031 3.5 -0.125 C 3.394531 -0.0390625 3.257812 0 3.09375 0 L 1.0625 0 C 0.875 0 0.695312 -0.046875 0.53125 -0.140625 C 0.375 -0.234375 0.242188 -0.359375 0.140625 -0.515625 C 0.046875 -0.679688 0 -0.859375 0 -1.046875 Z M 2.546875 -1.265625 L 2.546875 -2.546875 L 1.28125 -2.546875 L 1.28125 -1.265625 Z M 2.546875 -1.265625 "/></g></g></g><g fill="#000000" fill-opacity="1"><g transform="translate(105.384688, 26.219419)"><g><path d="M 3.5 -0.640625 C 3.5 -0.453125 3.4375 -0.296875 3.3125 -0.171875 C 3.1875 -0.046875 3.03125 0.015625 2.84375 0.015625 C 2.65625 0.015625 2.5 -0.046875 2.375 -0.171875 C 2.257812 -0.296875 2.203125 -0.453125 2.203125 -0.640625 L 2.203125 -2.5625 L 1.28125 -2.5625 L 1.28125 -0.609375 C 1.28125 -0.441406 1.21875 -0.296875 1.09375 -0.171875 C 0.976562 -0.046875 0.832031 0.015625 0.65625 0.015625 C 0.46875 0.015625 0.3125 -0.046875 0.1875 -0.171875 C 0.0625 -0.296875 0 -0.441406 0 -0.609375 L 0 -3.21875 C 0 -3.40625 0.0625 -3.5625 0.1875 -3.6875 C 0.3125 -3.8125 0.46875 -3.875 0.65625 -3.875 C 0.832031 -3.875 0.976562 -3.8125 1.09375 -3.6875 C 1.21875 -3.5625 1.28125 -3.40625 1.28125 -3.21875 L 1.28125 -3 C 1.28125 -2.976562 1.285156 -2.96875 1.296875 -2.96875 C 1.316406 -2.96875 1.328125 -2.976562 1.328125 -3 C 1.429688 -3.3125 1.582031 -3.53125 1.78125 -3.65625 C 1.988281 -3.789062 2.195312 -3.859375 2.40625 -3.859375 C 2.675781 -3.859375 2.910156 -3.773438 3.109375 -3.609375 C 3.316406 -3.441406 3.4375 -3.226562 3.46875 -2.96875 C 3.5 -2.925781 3.523438 -2.925781 3.546875 -2.96875 C 3.617188 -3.207031 3.742188 -3.414062 3.921875 -3.59375 C 4.097656 -3.769531 4.320312 -3.859375 4.59375 -3.859375 C 4.800781 -3.859375 4.984375 -3.804688 5.140625 -3.703125 C 5.304688 -3.609375 5.4375 -3.476562 5.53125 -3.3125 C 5.632812 -3.144531 5.6875 -2.960938 5.6875 -2.765625 L 5.6875 -0.609375 C 5.6875 -0.441406 5.625 -0.296875 5.5 -0.171875 C 5.382812 -0.046875 5.234375 0.015625 5.046875 0.015625 C 4.867188 0.015625 4.71875 -0.046875 4.59375 -0.171875 C 4.46875 -0.296875 4.40625 -0.453125 4.40625 -0.640625 L 4.40625 -2.5625 L 3.5 -2.5625 Z M 3.5 -0.640625 "/></g></g></g><g fill="#000000" fill-opacity="1"><g transform="translate(111.364931, 26.219419)"><g><path d="M 0 -2.78125 C 0 -2.976562 0.046875 -3.15625 0.140625 -3.3125 C 0.234375 -3.46875 0.359375 -3.59375 0.515625 -3.6875 C 0.679688 -3.789062 0.859375 -3.84375 1.046875 -3.84375 L 2.796875 -3.84375 C 3.023438 -3.84375 3.234375 -3.769531 3.421875 -3.625 C 3.609375 -3.488281 3.734375 -3.3125 3.796875 -3.09375 C 3.835938 -2.988281 3.859375 -2.882812 3.859375 -2.78125 C 3.859375 -2.507812 3.800781 -2.285156 3.6875 -2.109375 C 3.570312 -1.929688 3.421875 -1.78125 3.234375 -1.65625 C 3.054688 -1.539062 2.863281 -1.414062 2.65625 -1.28125 L 3.09375 -1.28125 C 3.257812 -1.28125 3.394531 -1.238281 3.5 -1.15625 C 3.601562 -1.070312 3.671875 -0.960938 3.703125 -0.828125 C 3.734375 -0.703125 3.734375 -0.570312 3.703125 -0.4375 C 3.671875 -0.3125 3.601562 -0.207031 3.5 -0.125 C 3.394531 -0.0390625 3.257812 0 3.09375 0 L 1.0625 0 C 0.875 0 0.695312 -0.046875 0.53125 -0.140625 C 0.375 -0.234375 0.242188 -0.359375 0.140625 -0.515625 C 0.046875 -0.679688 0 -0.859375 0 -1.046875 Z M 2.546875 -1.265625 L 2.546875 -2.546875 L 1.28125 -2.546875 L 1.28125 -1.265625 Z M 2.546875 -1.265625 "/></g></g></g><g fill="#000000" fill-opacity="1"><g transform="translate(115.49328, 26.219419)"><g><path d="M 3.78125 -0.640625 C 3.78125 -0.453125 3.71875 -0.296875 3.59375 -0.171875 C 3.46875 -0.046875 3.3125 0.015625 3.125 0.015625 C 2.945312 0.015625 2.796875 -0.046875 2.671875 -0.171875 C 2.546875 -0.296875 2.484375 -0.453125 2.484375 -0.640625 L 2.484375 -2.578125 L 1.28125 -2.578125 L 1.28125 -0.609375 C 1.28125 -0.441406 1.21875 -0.296875 1.09375 -0.171875 C 0.96875 -0.046875 0.816406 0.015625 0.640625 0.015625 C 0.460938 0.015625 0.3125 -0.046875 0.1875 -0.171875 C 0.0625 -0.296875 0 -0.441406 0 -0.609375 L 0 -3.21875 C 0 -3.40625 0.0625 -3.5625 0.1875 -3.6875 C 0.3125 -3.820312 0.460938 -3.890625 0.640625 -3.890625 C 0.816406 -3.890625 0.96875 -3.820312 1.09375 -3.6875 C 1.21875 -3.5625 1.28125 -3.40625 1.28125 -3.21875 L 1.28125 -3 C 1.28125 -2.976562 1.285156 -2.96875 1.296875 -2.96875 C 1.304688 -2.96875 1.316406 -2.976562 1.328125 -3 C 1.421875 -3.289062 1.566406 -3.507812 1.765625 -3.65625 C 1.972656 -3.800781 2.210938 -3.875 2.484375 -3.875 C 2.734375 -3.875 2.953125 -3.820312 3.140625 -3.71875 C 3.335938 -3.625 3.492188 -3.484375 3.609375 -3.296875 C 3.722656 -3.117188 3.78125 -2.90625 3.78125 -2.65625 Z M 3.78125 -0.640625 "/></g></g></g><g fill="#000000" fill-opacity="1"><g transform="translate(119.570392, 26.219419)"><g><path d="M 0 -4.5625 C 0 -4.726562 0.0625 -4.875 0.1875 -5 C 0.3125 -5.132812 0.460938 -5.203125 0.640625 -5.203125 C 0.816406 -5.203125 0.96875 -5.132812 1.09375 -5 C 1.21875 -4.875 1.28125 -4.726562 1.28125 -4.5625 L 1.28125 -3.859375 L 1.40625 -3.859375 C 1.582031 -3.859375 1.722656 -3.8125 1.828125 -3.71875 C 1.941406 -3.632812 2.015625 -3.523438 2.046875 -3.390625 C 2.078125 -3.265625 2.078125 -3.140625 2.046875 -3.015625 C 2.015625 -2.890625 1.941406 -2.78125 1.828125 -2.6875 C 1.722656 -2.601562 1.582031 -2.5625 1.40625 -2.5625 L 1.28125 -2.5625 L 1.28125 -1.28125 L 1.65625 -1.28125 C 1.820312 -1.28125 1.957031 -1.238281 2.0625 -1.15625 C 2.164062 -1.070312 2.234375 -0.960938 2.265625 -0.828125 C 2.296875 -0.703125 2.296875 -0.570312 2.265625 -0.4375 C 2.234375 -0.3125 2.164062 -0.207031 2.0625 -0.125 C 1.957031 -0.0390625 1.816406 0 1.640625 0 L 1.078125 0 C 0.878906 0 0.695312 -0.046875 0.53125 -0.140625 C 0.375 -0.242188 0.242188 -0.375 0.140625 -0.53125 C 0.046875 -0.695312 0 -0.878906 0 -1.078125 Z M 0 -4.5625 "/></g></g></g><g fill="#000000" fill-opacity="1"><g transform="translate(122.051789, 26.219419)"><g/></g></g><g fill="#000000" fill-opacity="1"><g transform="translate(123.947606, 26.219419)"><g><path d="M 3.0625 -3.828125 L 1.328125 -3.828125 L 1.328125 -2.1875 L 1.265625 -2.1875 L 0.34375 -3.140625 C 0.1875 -3.316406 0.0820312 -3.515625 0.03125 -3.734375 C -0.0195312 -3.960938 -0.0195312 -4.179688 0.03125 -4.390625 C 0.09375 -4.597656 0.21875 -4.769531 0.40625 -4.90625 C 0.59375 -5.050781 0.835938 -5.125 1.140625 -5.125 L 3.0625 -5.125 C 3.226562 -5.125 3.363281 -5.078125 3.46875 -4.984375 C 3.570312 -4.898438 3.640625 -4.789062 3.671875 -4.65625 C 3.703125 -4.53125 3.703125 -4.40625 3.671875 -4.28125 C 3.640625 -4.15625 3.570312 -4.046875 3.46875 -3.953125 C 3.363281 -3.867188 3.226562 -3.828125 3.0625 -3.828125 Z M 0.640625 -1.28125 C 0.460938 -1.28125 0.320312 -1.238281 0.21875 -1.15625 C 0.125 -1.070312 0.0625 -0.960938 0.03125 -0.828125 C 0 -0.703125 0 -0.578125 0.03125 -0.453125 C 0.0625 -0.328125 0.125 -0.21875 0.21875 -0.125 C 0.320312 -0.0390625 0.460938 0 0.640625 0 C 0.890625 0 1.113281 0 1.3125 0 C 1.507812 0 1.710938 0 1.921875 0 C 2.128906 0 2.359375 0 2.609375 0 C 2.828125 0 3.015625 -0.0507812 3.171875 -0.15625 C 3.335938 -0.269531 3.46875 -0.410156 3.5625 -0.578125 C 3.664062 -0.742188 3.722656 -0.925781 3.734375 -1.125 C 3.753906 -1.320312 3.726562 -1.515625 3.65625 -1.703125 C 3.59375 -1.890625 3.476562 -2.054688 3.3125 -2.203125 L 2.484375 -2.875 L 2.421875 -2.875 L 2.421875 -1.28125 Z M 0.640625 -1.28125 "/></g></g></g><g fill="#000000" fill-opacity="1"><g transform="translate(127.922242, 26.219419)"><g><path d="M 3.640625 -3.21875 L 3.640625 0.21875 C 3.640625 0.40625 3.585938 0.582031 3.484375 0.75 C 3.390625 0.914062 3.257812 1.046875 3.09375 1.140625 C 2.9375 1.234375 2.757812 1.28125 2.5625 1.28125 L 1.875 1.28125 C 1.695312 1.28125 1.546875 1.21875 1.421875 1.09375 C 1.296875 0.976562 1.234375 0.828125 1.234375 0.640625 C 1.234375 0.460938 1.296875 0.3125 1.421875 0.1875 C 1.554688 0.0625 1.710938 0 1.890625 0 L 2.34375 0 L 2.34375 -0.78125 C 2.34375 -0.8125 2.332031 -0.820312 2.3125 -0.8125 C 2.300781 -0.8125 2.289062 -0.800781 2.28125 -0.78125 C 2.175781 -0.519531 2.015625 -0.320312 1.796875 -0.1875 C 1.578125 -0.0625 1.335938 0 1.078125 0 C 0.890625 0 0.710938 -0.046875 0.546875 -0.140625 C 0.378906 -0.234375 0.242188 -0.363281 0.140625 -0.53125 C 0.046875 -0.695312 0 -0.878906 0 -1.078125 L 0 -3.21875 C 0 -3.40625 0.0625 -3.554688 0.1875 -3.671875 C 0.3125 -3.796875 0.460938 -3.859375 0.640625 -3.859375 C 0.816406 -3.859375 0.96875 -3.796875 1.09375 -3.671875 C 1.21875 -3.554688 1.28125 -3.40625 1.28125 -3.21875 L 1.28125 -1.28125 L 2.34375 -1.28125 L 2.34375 -3.21875 C 2.34375 -3.40625 2.40625 -3.554688 2.53125 -3.671875 C 2.664062 -3.796875 2.816406 -3.859375 2.984375 -3.859375 C 3.160156 -3.859375 3.3125 -3.796875 3.4375 -3.671875 C 3.570312 -3.554688 3.640625 -3.40625 3.640625 -3.21875 Z M 3.640625 -3.21875 "/></g></g></g><g fill="#000000" fill-opacity="1"><g transform="translate(131.84564, 26.219419)"><g><path d="M 2.546875 0 L 0.625 0 C 0.445312 0 0.296875 -0.0625 0.171875 -0.1875 C 0.046875 -0.3125 -0.015625 -0.460938 -0.015625 -0.640625 C -0.015625 -0.816406 0.046875 -0.96875 0.171875 -1.09375 C 0.296875 -1.21875 0.441406 -1.28125 0.609375 -1.28125 L 0.984375 -1.28125 C 1.015625 -1.28125 1.023438 -1.285156 1.015625 -1.296875 C 1.015625 -1.316406 1.003906 -1.328125 0.984375 -1.328125 C 0.691406 -1.429688 0.453125 -1.570312 0.265625 -1.75 C 0.0859375 -1.9375 0 -2.191406 0 -2.515625 L 0 -2.765625 C 0 -2.972656 0.046875 -3.15625 0.140625 -3.3125 C 0.242188 -3.476562 0.378906 -3.609375 0.546875 -3.703125 C 0.710938 -3.804688 0.890625 -3.859375 1.078125 -3.859375 L 3.015625 -3.859375 C 3.191406 -3.859375 3.34375 -3.789062 3.46875 -3.65625 C 3.59375 -3.53125 3.65625 -3.378906 3.65625 -3.203125 C 3.65625 -3.035156 3.59375 -2.882812 3.46875 -2.75 C 3.34375 -2.625 3.191406 -2.5625 3.015625 -2.5625 L 2.65625 -2.578125 C 2.625 -2.578125 2.609375 -2.566406 2.609375 -2.546875 C 2.617188 -2.535156 2.632812 -2.523438 2.65625 -2.515625 C 2.9375 -2.421875 3.164062 -2.28125 3.34375 -2.09375 C 3.53125 -1.914062 3.625 -1.660156 3.625 -1.328125 L 3.625 -1.078125 C 3.625 -0.878906 3.570312 -0.695312 3.46875 -0.53125 C 3.375 -0.375 3.242188 -0.242188 3.078125 -0.140625 C 2.921875 -0.046875 2.742188 0 2.546875 0 Z M 2.4375 -2.578125 C 2.21875 -2.566406 2.015625 -2.5625 1.828125 -2.5625 C 1.640625 -2.5625 1.4375 -2.5625 1.21875 -2.5625 L 1.21875 -1.28125 C 1.4375 -1.28125 1.640625 -1.28125 1.828125 -1.28125 C 2.015625 -1.28125 2.222656 -1.28125 2.453125 -1.28125 Z M 2.4375 -2.578125 "/></g></g></g><g fill="#000000" fill-opacity="1"><g transform="translate(135.761713, 26.219419)"><g><path d="M 0 -4.5625 C 0 -4.726562 0.0625 -4.875 0.1875 -5 C 0.3125 -5.132812 0.460938 -5.203125 0.640625 -5.203125 C 0.816406 -5.203125 0.96875 -5.132812 1.09375 -5 C 1.21875 -4.875 1.28125 -4.726562 1.28125 -4.5625 L 1.28125 -3.859375 L 1.40625 -3.859375 C 1.582031 -3.859375 1.722656 -3.8125 1.828125 -3.71875 C 1.941406 -3.632812 2.015625 -3.523438 2.046875 -3.390625 C 2.078125 -3.265625 2.078125 -3.140625 2.046875 -3.015625 C 2.015625 -2.890625 1.941406 -2.78125 1.828125 -2.6875 C 1.722656 -2.601562 1.582031 -2.5625 1.40625 -2.5625 L 1.28125 -2.5625 L 1.28125 -1.28125 L 1.65625 -1.28125 C 1.820312 -1.28125 1.957031 -1.238281 2.0625 -1.15625 C 2.164062 -1.070312 2.234375 -0.960938 2.265625 -0.828125 C 2.296875 -0.703125 2.296875 -0.570312 2.265625 -0.4375 C 2.234375 -0.3125 2.164062 -0.207031 2.0625 -0.125 C 1.957031 -0.0390625 1.816406 0 1.640625 0 L 1.078125 0 C 0.878906 0 0.695312 -0.046875 0.53125 -0.140625 C 0.375 -0.242188 0.242188 -0.375 0.140625 -0.53125 C 0.046875 -0.695312 0 -0.878906 0 -1.078125 Z M 0 -4.5625 "/></g></g></g><g fill="#000000" fill-opacity="1"><g transform="translate(138.243111, 26.219419)"><g><path d="M 0 -2.78125 C 0 -2.976562 0.046875 -3.15625 0.140625 -3.3125 C 0.234375 -3.46875 0.359375 -3.59375 0.515625 -3.6875 C 0.679688 -3.789062 0.859375 -3.84375 1.046875 -3.84375 L 2.796875 -3.84375 C 3.023438 -3.84375 3.234375 -3.769531 3.421875 -3.625 C 3.609375 -3.488281 3.734375 -3.3125 3.796875 -3.09375 C 3.835938 -2.988281 3.859375 -2.882812 3.859375 -2.78125 C 3.859375 -2.507812 3.800781 -2.285156 3.6875 -2.109375 C 3.570312 -1.929688 3.421875 -1.78125 3.234375 -1.65625 C 3.054688 -1.539062 2.863281 -1.414062 2.65625 -1.28125 L 3.09375 -1.28125 C 3.257812 -1.28125 3.394531 -1.238281 3.5 -1.15625 C 3.601562 -1.070312 3.671875 -0.960938 3.703125 -0.828125 C 3.734375 -0.703125 3.734375 -0.570312 3.703125 -0.4375 C 3.671875 -0.3125 3.601562 -0.207031 3.5 -0.125 C 3.394531 -0.0390625 3.257812 0 3.09375 0 L 1.0625 0 C 0.875 0 0.695312 -0.046875 0.53125 -0.140625 C 0.375 -0.234375 0.242188 -0.359375 0.140625 -0.515625 C 0.046875 -0.679688 0 -0.859375 0 -1.046875 Z M 2.546875 -1.265625 L 2.546875 -2.546875 L 1.28125 -2.546875 L 1.28125 -1.265625 Z M 2.546875 -1.265625 "/></g></g></g><g fill="#000000" fill-opacity="1"><g transform="translate(142.37146, 26.219419)"><g><path d="M 3.5 -0.640625 C 3.5 -0.453125 3.4375 -0.296875 3.3125 -0.171875 C 3.1875 -0.046875 3.03125 0.015625 2.84375 0.015625 C 2.65625 0.015625 2.5 -0.046875 2.375 -0.171875 C 2.257812 -0.296875 2.203125 -0.453125 2.203125 -0.640625 L 2.203125 -2.5625 L 1.28125 -2.5625 L 1.28125 -0.609375 C 1.28125 -0.441406 1.21875 -0.296875 1.09375 -0.171875 C 0.976562 -0.046875 0.832031 0.015625 0.65625 0.015625 C 0.46875 0.015625 0.3125 -0.046875 0.1875 -0.171875 C 0.0625 -0.296875 0 -0.441406 0 -0.609375 L 0 -3.21875 C 0 -3.40625 0.0625 -3.5625 0.1875 -3.6875 C 0.3125 -3.8125 0.46875 -3.875 0.65625 -3.875 C 0.832031 -3.875 0.976562 -3.8125 1.09375 -3.6875 C 1.21875 -3.5625 1.28125 -3.40625 1.28125 -3.21875 L 1.28125 -3 C 1.28125 -2.976562 1.285156 -2.96875 1.296875 -2.96875 C 1.316406 -2.96875 1.328125 -2.976562 1.328125 -3 C 1.429688 -3.3125 1.582031 -3.53125 1.78125 -3.65625 C 1.988281 -3.789062 2.195312 -3.859375 2.40625 -3.859375 C 2.675781 -3.859375 2.910156 -3.773438 3.109375 -3.609375 C 3.316406 -3.441406 3.4375 -3.226562 3.46875 -2.96875 C 3.5 -2.925781 3.523438 -2.925781 3.546875 -2.96875 C 3.617188 -3.207031 3.742188 -3.414062 3.921875 -3.59375 C 4.097656 -3.769531 4.320312 -3.859375 4.59375 -3.859375 C 4.800781 -3.859375 4.984375 -3.804688 5.140625 -3.703125 C 5.304688 -3.609375 5.4375 -3.476562 5.53125 -3.3125 C 5.632812 -3.144531 5.6875 -2.960938 5.6875 -2.765625 L 5.6875 -0.609375 C 5.6875 -0.441406 5.625 -0.296875 5.5 -0.171875 C 5.382812 -0.046875 5.234375 0.015625 5.046875 0.015625 C 4.867188 0.015625 4.71875 -0.046875 4.59375 -0.171875 C 4.46875 -0.296875 4.40625 -0.453125 4.40625 -0.640625 L 4.40625 -2.5625 L 3.5 -2.5625 Z M 3.5 -0.640625 "/></g></g></g><path stroke-linecap="round" transform="matrix(0.71423, 0, 0, 0.71423, 16.426701, 6.674903)" fill="none" stroke-linejoin="miter" d="M 2.498127 2.500644 L 27.847773 2.500644 " stroke="#000000" stroke-width="5" stroke-opacity="1" stroke-miterlimit="4"/><path stroke-linecap="round" transform="matrix(0.71423, 0, 0, 0.71423, 10.900617, 6.674903)" fill="none" stroke-linejoin="miter" d="M 2.501833 2.500644 L 1.369713 2.500644 " stroke="#000000" stroke-width="5" stroke-opacity="1" stroke-miterlimit="4"/><path stroke-linecap="round" transform="matrix(0.71423, 0, 0, 0.71423, 13.663659, 21.23625)" fill="none" stroke-linejoin="miter" d="M 2.499979 2.502258 L 1.367859 2.502258 " stroke="#000000" stroke-width="5" stroke-opacity="1" stroke-miterlimit="4"/><path stroke-linecap="round" transform="matrix(0.71423, 0, 0, 0.71423, 13.663659, 11.592836)" fill="none" stroke-linejoin="miter" d="M 2.499979 2.500694 L 1.367859 2.500694 " stroke="#000000" stroke-width="5" stroke-opacity="1" stroke-miterlimit="4"/><path stroke-linecap="round" transform="matrix(0.71423, 0, 0, 0.71423, 2.814853, 16.414542)" fill="none" stroke-linejoin="miter" d="M 2.501589 2.498743 L 1.369469 2.498743 " stroke="#000000" stroke-width="5" stroke-opacity="1" stroke-miterlimit="4"/><path stroke-linecap="round" transform="matrix(0.71423, 0, 0, 0.71423, 10.900617, 26.057956)" fill="none" stroke-linejoin="miter" d="M 2.501833 2.500307 L 1.369713 2.500307 " stroke="#000000" stroke-width="5" stroke-opacity="1" stroke-miterlimit="4"/><path stroke-linecap="round" transform="matrix(0.71423, 0, 0, 0.71423, 19.426577, 11.592836)" fill="none" stroke-linejoin="miter" d="M 2.498301 2.500694 L 6.118898 2.500694 " stroke="#000000" stroke-width="5" stroke-opacity="1" stroke-miterlimit="4"/><path stroke-linecap="round" transform="matrix(0.71423, 0, 0, 0.71423, 27.794647, 11.592836)" fill="none" stroke-linejoin="miter" d="M 2.502535 2.500694 L 11.9314 2.500694 " stroke="#000000" stroke-width="5" stroke-opacity="1" stroke-miterlimit="4"/><path stroke-linecap="round" transform="matrix(0.71423, 0, 0, 0.71423, 27.794647, 26.057956)" fill="none" stroke-linejoin="miter" d="M 2.502535 2.500307 L 11.9314 2.500307 " stroke="#000000" stroke-width="5" stroke-opacity="1" stroke-miterlimit="4"/><path stroke-linecap="round" transform="matrix(0.71423, 0, 0, 0.71423, 23.450809, 16.414542)" fill="none" stroke-linejoin="miter" d="M 2.502658 2.498743 L 18.013251 2.498743 " stroke="#000000" stroke-width="5" stroke-opacity="1" stroke-miterlimit="4"/><path stroke-linecap="round" transform="matrix(0.71423, 0, 0, 0.71423, 8.862916, 16.414542)" fill="none" stroke-linejoin="miter" d="M 2.499927 2.498743 L 14.47743 2.498743 " stroke="#000000" stroke-width="5" stroke-opacity="1" stroke-miterlimit="4"/><path stroke-linecap="round" transform="matrix(0.71423, 0, 0, 0.71423, 16.426701, 26.057956)" fill="none" stroke-linejoin="miter" d="M 2.498127 2.500307 L 10.60892 2.500307 " stroke="#000000" stroke-width="5" stroke-opacity="1" stroke-miterlimit="4"/><path stroke-linecap="round" transform="matrix(0.71423, 0, 0, 0.71423, 19.426577, 21.23625)" fill="none" stroke-linejoin="miter" d="M 2.498301 2.502258 L 23.647618 2.502258 " stroke="#000000" stroke-width="5" stroke-opacity="1" stroke-miterlimit="4"/><path stroke-linecap="butt" transform="matrix(0.00000000124657, 0.71423, -0.71423, 0.00000000124657, 38.645349, 5.004119)" fill="none" stroke-linejoin="miter" d="M -0.000297572 1.499701 L 37.097146 1.499701 " stroke="#a81010" stroke-width="3" stroke-opacity="1" stroke-miterlimit="4"/></svg>